<svg xmlns="http://www.w3.org/2000/svg" viewBox="0 0 1000 309.9"><defs><style>.cls-1{fill:#231f20;}.cls-2{fill:#3da9df;}</style></defs><title>Orion-primary-logo</title><g id="Layer_2" data-name="Layer 2"><g id="Layer_1-2" data-name="Layer 1"><path class="cls-1" d="M375,155c0-38.5,29.2-68.06,68.06-68.06s68.05,29.56,68.05,68.06S481.92,223,443.06,223,375,193.45,375,155Zm112.94,0c0-26.27-19.16-46.89-44.88-46.89S398.17,128.68,398.17,155s19.16,46.89,44.89,46.89S487.94,181.22,487.94,155Z"/><path class="cls-1" d="M540.22,88.9h44.51c13.5,0,26.64.91,37,6.57,10.76,5.84,19,16.42,19,32.11,0,17.88-10.77,31.75-29.38,36.31L651.15,221H624L587.1,166.44H563.39V221H540.22Zm47.61,59.66c10.59,0,17.7-1.46,23-5.29,4.2-3.1,6.75-7.66,6.75-14.23,0-7.84-3.65-12.77-9.48-15.87s-13.14-3.65-24.63-3.65H563.39v39Z"/><path class="cls-1" d="M675.78,88.9H699V221H675.78Z"/><path class="cls-1" d="M726.32,155c0-38.5,29.19-68.06,68-68.06s68.06,29.56,68.06,68.06S833.23,223,794.37,223,726.32,193.45,726.32,155Zm112.94,0c0-26.27-19.16-46.89-44.89-46.89S749.49,128.68,749.49,155s19.16,46.89,44.88,46.89S839.26,181.22,839.26,155Z"/><path class="cls-1" d="M884.33,221V88.9h21.89L954,152.58c8.21,10.94,15.87,21.34,23.54,31.93l.36-.19c-.36-12.4-.36-25.9-.36-39.95V88.9H1000V221H978.1l-47.8-63.68c-8.21-10.95-15.87-21.35-23.53-31.93l-.37.18c.37,12.41.37,25.91.37,40V221Z"/><path class="cls-2" d="M263.06,153.89c-7.35-.84-15.2-1.6-23.44-2.28a238,238,0,0,0-3.39-40.44c-.19-1-1-1-1.2,0A237.4,237.4,0,0,0,231.65,151c-11.84-.87-24.45-1.57-37.65-2.08-.1-13.83-.6-27.09-1.46-39.49,6.85-.57,13.27-1.25,19.18-2,1-.12,1.46-.46,1.46-.8s-.48-.66-1.44-.79c-6-.8-12.61-1.49-19.63-2.06-1-13.07-2.48-25.07-4.24-35.56-.1-.64-.38-1-.65-1h0c-.28,0-.56.33-.66,1-1.73,10.3-3.15,22.06-4.18,34.85-10.59-.67-22-1.07-33.89-1.17-.37-12.45-.86-24.52-1.48-36.14a154.51,154.51,0,0,0,21.25-1.82c1-.16,1.51-.62,1.5-1.08s-.5-.93-1.5-1.09a155.8,155.8,0,0,0-21.57-1.83c-1.19-20.8-2.78-40-4.7-57.18-.41-3.64-2.13-3.64-2.54,0-1.92,17.12-3.51,36.37-4.7,57.17a156.28,156.28,0,0,0-21.61,1.83c-1,.16-1.5.63-1.5,1.09s.49.92,1.5,1.08a155,155,0,0,0,21.29,1.82c-.62,11.62-1.12,23.69-1.48,36.14-11.91.1-23.3.5-33.89,1.17-1-12.79-2.45-24.55-4.18-34.85-.11-.64-.38-1-.66-1h0c-.28,0-.55.32-.66,1-1.76,10.49-3.19,22.49-4.24,35.56-7,.57-13.59,1.26-19.62,2.06-1,.13-1.44.46-1.44.79s.49.68,1.46.8c5.9.78,12.33,1.46,19.18,2-.86,12.4-1.37,25.66-1.46,39.49-13.2.51-25.81,1.21-37.65,2.08a236.25,236.25,0,0,0-3.39-39.83c-.19-1-1-1-1.2,0a238,238,0,0,0-3.38,40.44c-8.25.68-16.09,1.44-23.44,2.28-1.5.17-2.25.61-2.25,1.06s.75.89,2.24,1.06c7.35.84,15.2,1.6,23.45,2.28a238,238,0,0,0,3.38,40.44c.2,1,1,1.05,1.2,0a236.25,236.25,0,0,0,3.39-39.83c11.84.87,24.45,1.57,37.65,2.08.09,13.82.6,27.09,1.46,39.49-6.85.57-13.28,1.25-19.18,2-1,.12-1.46.46-1.46.79s.48.67,1.44.8c6,.8,12.61,1.49,19.62,2.06,1.05,13.07,2.48,25.07,4.24,35.56.11.64.38,1,.66,1h0c.28,0,.55-.33.66-1,1.73-10.31,3.14-22.06,4.18-34.85,10.59.67,22,1.07,33.89,1.17.36,12.45.86,24.52,1.48,36.13A156.47,156.47,0,0,0,113.14,246c-1,.16-1.5.62-1.5,1.08s.5.93,1.5,1.09A156.28,156.28,0,0,0,134.75,250c1.19,20.8,2.78,40.05,4.7,57.17.2,1.83.74,2.74,1.27,2.74s1.06-.91,1.27-2.74c1.92-17.12,3.51-36.37,4.7-57.17a159,159,0,0,0,21.57-1.83c1-.16,1.5-.63,1.5-1.09s-.49-.92-1.5-1.08A156,156,0,0,0,147,244.16c.62-11.61,1.11-23.68,1.48-36.13,11.9-.1,23.3-.5,33.89-1.17,1,12.79,2.45,24.54,4.18,34.85.1.64.38,1,.66,1h0c.27,0,.55-.32.65-1,1.76-10.49,3.2-22.49,4.24-35.56,7-.57,13.6-1.26,19.63-2.06,1-.13,1.44-.46,1.44-.8s-.49-.67-1.46-.79c-5.91-.78-12.33-1.46-19.18-2,.86-12.4,1.36-25.67,1.46-39.49,13.2-.51,25.81-1.21,37.65-2.08A237.4,237.4,0,0,0,235,198.74c.2,1,1,1,1.2,0a238,238,0,0,0,3.39-40.44c8.24-.68,16.1-1.44,23.44-2.28,1.5-.17,2.25-.61,2.24-1.06S264.55,154.06,263.06,153.89Zm-81.21-43.7c-.82,12-1.31,24.9-1.41,38.28-10.15-.27-20.59-.44-31.26-.48,0-12.48-.17-24.73-.45-36.67C160.35,111.22,171.48,110.83,181.85,110.19Zm-82.26,0c10.37.64,21.49,1,33.11,1.13-.27,11.94-.42,24.19-.44,36.67-10.67,0-21.11.21-31.26.48C100.9,135.09,100.41,122.23,99.59,110.19Zm0,89.52c.82-12,1.31-24.9,1.41-38.28,10.15.27,20.59.44,31.26.48,0,12.48.17,24.73.44,36.67C121.08,198.68,110,199.07,99.59,199.71Zm82.26,0c-10.37-.64-21.5-1-33.12-1.13.28-11.94.43-24.19.45-36.67,10.67,0,21.11-.21,31.26-.48C180.54,174.81,181,187.67,181.85,199.71Z"/><path class="cls-2" d="M2.85,135.4c-.2-1-1.09-1-1.3,0A98.86,98.86,0,0,0,0,153.54c0,.47,0,.94,0,1.41s0,.94,0,1.41a98.86,98.86,0,0,0,1.55,18.11c.21,1,1.1,1.06,1.3,0a98.26,98.26,0,0,0,1.56-18.14c0-.47,0-.94,0-1.41s0-.94,0-1.41A98.18,98.18,0,0,0,2.85,135.4Z"/><path class="cls-2" d="M281.44,153.54a97.91,97.91,0,0,0-1.56-18.11c-.2-1-1.09-1.06-1.29,0A98.18,98.18,0,0,0,277,153.54c0,.47,0,.94,0,1.41s0,.94,0,1.41a98.26,98.26,0,0,0,1.56,18.14c.2,1,1.09,1,1.29,0a97.91,97.91,0,0,0,1.56-18.11c0-.47,0-.94,0-1.41S281.44,154,281.44,153.54Z"/></g></g></svg>